<svg id="Layer_1" data-name="Layer 1" xmlns="http://www.w3.org/2000/svg" viewBox="0 0 49.26 40.04"><defs><style>.cls-1{fill:#55acee;}</style></defs><title>icon-co-</title><path class="cls-1" d="M49.26,4.74a20.14,20.14,0,0,1-5.81,1.59A10.13,10.13,0,0,0,47.9.74a20.23,20.23,0,0,1-6.42,2.45,10.12,10.12,0,0,0-17.22,9.22A28.69,28.69,0,0,1,3.43,1.85,10.12,10.12,0,0,0,6.56,15.34,10.07,10.07,0,0,1,2,14.08s0,0.08,0,.13a10.11,10.11,0,0,0,8.11,9.91,10.13,10.13,0,0,1-4.56.17,10.12,10.12,0,0,0,9.44,7A20.28,20.28,0,0,1,2.41,35.64,20.7,20.7,0,0,1,0,35.49,28.61,28.61,0,0,0,15.49,40c18.59,0,28.76-15.4,28.76-28.76,0-.44,0-0.87,0-1.31A20.52,20.52,0,0,0,49.26,4.74Z"/></svg>