<svg id="Layer_1" data-name="Layer 1" xmlns="http://www.w3.org/2000/svg" viewBox="0 0 49.58 48.36"><defs><style>.cls-1,.cls-2{fill:#231f20;}.cls-1{fill-rule:evenodd;}</style></defs><title>icon-co-</title><path class="cls-1" d="M24.79,0A24.79,24.79,0,0,0,17,48.31a1.25,1.25,0,0,0,1.69-1.19c0-.59,0-2.54,0-4.62-6.9,1.5-8.35-2.93-8.35-2.93C9.13,36.72,7.51,36,7.51,36c-2.25-1.54.17-1.51,0.17-1.51A5.21,5.21,0,0,1,11.48,37c2.21,3.79,5.8,2.69,7.21,2.06a5.28,5.28,0,0,1,1.57-3.32C14.76,35.12,9,33,9,23.5a9.59,9.59,0,0,1,2.55-6.65,8.91,8.91,0,0,1,.24-6.56s2.08-.67,6.82,2.54a23.51,23.51,0,0,1,12.42,0c4.73-3.21,6.81-2.54,6.81-2.54a8.9,8.9,0,0,1,.24,6.56,9.58,9.58,0,0,1,2.55,6.65c0,9.52-5.8,11.62-11.32,12.23A5.93,5.93,0,0,1,31,40.32c0,3.32,0,6,0,6.8a1.24,1.24,0,0,0,1.7,1.19A24.79,24.79,0,0,0,24.79,0Z"/><path class="cls-2" d="M9.39,35.59a0.38,0.38,0,0,1-.65-0.3,0.31,0.31,0,0,1,.43-0.08,0.31,0.31,0,0,1,.22.37h0Zm-0.31-.23"/><path class="cls-2" d="M10.39,36.71a0.46,0.46,0,0,1-.58-0.63,0.38,0.38,0,0,1,.51.11,0.37,0.37,0,0,1,.07.52h0Zm-0.24-.25"/><path class="cls-2" d="M11.37,38.14a0.44,0.44,0,0,1-.55-0.21,0.43,0.43,0,0,1,0-.59,0.52,0.52,0,0,1,.55.8h0Zm0,0"/><path class="cls-2" d="M12.71,39.52a0.46,0.46,0,0,1-.64-0.1,0.48,0.48,0,0,1-.14-0.63,0.47,0.47,0,0,1,.64.09,0.47,0.47,0,0,1,.14.63h0Zm0,0"/><path class="cls-2" d="M14.56,40.32a0.57,0.57,0,0,1-1-.31,0.57,0.57,0,0,1,1,.31h0Zm0,0"/><path class="cls-2" d="M16.59,40.47a0.57,0.57,0,0,1-1.07,0,0.48,0.48,0,0,1,.53-0.38,0.47,0.47,0,0,1,.54.36h0Zm0,0"/><path class="cls-2" d="M18.47,40.15a0.57,0.57,0,1,1-.59-0.27,0.48,0.48,0,0,1,.59.27h0Zm0,0"/></svg>