<svg id="Layer_1" data-name="Layer 1" xmlns="http://www.w3.org/2000/svg" viewBox="0 0 48.22 49.2"><defs><style>.cls-1{fill:#dd4b39;}</style></defs><title>icon-co-</title><path class="cls-1" d="M47.75,20H24.6c0,3.2,0,6.4,0,9.6H38a11.56,11.56,0,0,1-4.93,7.6,14.06,14.06,0,0,1-5.42,2.14,16.06,16.06,0,0,1-5.87,0,14.45,14.45,0,0,1-5.48-2.36,15.29,15.29,0,0,1-5.64-7.55,14.9,14.9,0,0,1,0-9.58A15.26,15.26,0,0,1,14.26,14a14.46,14.46,0,0,1,14.57-3.79,13.33,13.33,0,0,1,5.3,3.12l4.53-4.52C39.45,8,40.28,7.23,41,6.4a23.81,23.81,0,0,0-7.92-4.91A24.65,24.65,0,0,0,2.62,13.56a24.57,24.57,0,0,0,0,22.09A24.79,24.79,0,0,0,9.3,43.86a24.49,24.49,0,0,0,8.94,4.51,26.29,26.29,0,0,0,12.59.14A22.22,22.22,0,0,0,40.9,43.27a22.34,22.34,0,0,0,6.22-10.21A28.91,28.91,0,0,0,47.75,20Z"/></svg>